<svg width="512" height="512" viewBox="0 0 512 512" fill="none" xmlns="http://www.w3.org/2000/svg">
  <defs>
    <!-- 漸層定義 -->
    <linearGradient id="bgGradient" x1="0%" y1="0%" x2="100%" y2="100%">
      <stop offset="0%" style="stop-color:#667eea;stop-opacity:1" />
      <stop offset="100%" style="stop-color:#764ba2;stop-opacity:1" />
    </linearGradient>
    
    <linearGradient id="gridGradient" x1="0%" y1="0%" x2="100%" y2="100%">
      <stop offset="0%" style="stop-color:#ffffff;stop-opacity:1" />
      <stop offset="100%" style="stop-color:#f8fafc;stop-opacity:1" />
    </linearGradient>
    
    <!-- 陰影濾鏡 -->
    <filter id="shadow" x="-20%" y="-20%" width="140%" height="140%">
      <feDropShadow dx="0" dy="4" stdDeviation="8" flood-color="#000000" flood-opacity="0.1"/>
    </filter>
    
    <filter id="innerShadow" x="-50%" y="-50%" width="200%" height="200%">
      <feDropShadow dx="0" dy="2" stdDeviation="4" flood-color="#000000" flood-opacity="0.05"/>
    </filter>
  </defs>
  
  <!-- 背景圓形 -->
  <circle cx="256" cy="256" r="240" fill="url(#bgGradient)" filter="url(#shadow)"/>
  
  <!-- 內圈裝飾 -->
  <circle cx="256" cy="256" r="220" fill="none" stroke="rgba(255,255,255,0.2)" stroke-width="2"/>
  <circle cx="256" cy="256" r="200" fill="none" stroke="rgba(255,255,255,0.1)" stroke-width="1"/>
  
  <!-- 數獨網格背景 -->
  <rect x="120" y="120" width="272" height="272" rx="20" fill="url(#gridGradient)" filter="url(#innerShadow)"/>
  
  <!-- 3x3 宮格分隔線 -->
  <line x1="200" y1="120" x2="200" y2="392" stroke="#cbd5e1" stroke-width="4" opacity="0.8"/>
  <line x1="280" y1="120" x2="280" y2="392" stroke="#cbd5e1" stroke-width="4" opacity="0.8"/>
  <line x1="120" y1="200" x2="392" y2="200" stroke="#cbd5e1" stroke-width="4" opacity="0.8"/>
  <line x1="120" y1="280" x2="392" y2="280" stroke="#cbd5e1" stroke-width="4" opacity="0.8"/>
  
  <!-- 細線網格 -->
  <g stroke="#e2e8f0" stroke-width="1.5" opacity="0.6">
    <!-- 垂直線 -->
    <line x1="146.67" y1="120" x2="146.67" y2="392"/>
    <line x1="173.33" y1="120" x2="173.33" y2="392"/>
    <line x1="226.67" y1="120" x2="226.67" y2="392"/>
    <line x1="253.33" y1="120" x2="253.33" y2="392"/>
    <line x1="306.67" y1="120" x2="306.67" y2="392"/>
    <line x1="333.33" y1="120" x2="333.33" y2="392"/>
    <line x1="386.67" y1="120" x2="386.67" y2="392"/>
    <line x1="413.33" y1="120" x2="413.33" y2="392"/>
    
    <!-- 水平線 -->
    <line x1="120" y1="146.67" x2="392" y2="146.67"/>
    <line x1="120" y1="173.33" x2="392" y2="173.33"/>
    <line x1="120" y1="226.67" x2="392" y2="226.67"/>
    <line x1="120" y1="253.33" x2="392" y2="253.33"/>
    <line x1="120" y1="306.67" x2="392" y2="306.67"/>
    <line x1="120" y1="333.33" x2="392" y2="333.33"/>
    <line x1="120" y1="386.67" x2="392" y2="386.67"/>
    <line x1="120" y1="413.33" x2="392" y2="413.33"/>
  </g>
  
  <!-- 數字 1-9 在網格中 -->
  <g font-family="'Segoe UI', Arial, sans-serif" font-weight="600" text-anchor="middle" dominant-baseline="middle">
    <!-- 第一行 -->
    <text x="133.33" y="133.33" font-size="22" fill="#667eea">5</text>
    <text x="160" y="133.33" font-size="22" fill="#64748b">3</text>
    <text x="186.67" y="133.33" font-size="22" fill="#667eea">7</text>
    <text x="213.33" y="133.33" font-size="22" fill="#64748b">6</text>
    <text x="240" y="133.33" font-size="22" fill="#667eea">1</text>
    <text x="266.67" y="133.33" font-size="22" fill="#64748b">9</text>
    <text x="293.33" y="133.33" font-size="22" fill="#667eea">8</text>
    <text x="320" y="133.33" font-size="22" fill="#64748b">2</text>
    <text x="346.67" y="133.33" font-size="22" fill="#667eea">4</text>
    
    <!-- 第二行 -->
    <text x="133.33" y="160" font-size="22" fill="#64748b">6</text>
    <text x="160" y="160" font-size="22" fill="#667eea">8</text>
    <text x="186.67" y="160" font-size="22" fill="#64748b">2</text>
    <text x="213.33" y="160" font-size="22" fill="#667eea">5</text>
    <text x="240" y="160" font-size="22" fill="#64748b">7</text>
    <text x="266.67" y="160" font-size="22" fill="#667eea">3</text>
    <text x="293.33" y="160" font-size="22" fill="#64748b">4</text>
    <text x="320" y="160" font-size="22" fill="#667eea">1</text>
    <text x="346.67" y="160" font-size="22" fill="#64748b">9</text>
    
    <!-- 第三行 -->
    <text x="133.33" y="186.67" font-size="22" fill="#667eea">1</text>
    <text x="160" y="186.67" font-size="22" fill="#64748b">9</text>
    <text x="186.67" y="186.67" font-size="22" fill="#667eea">4</text>
    <text x="213.33" y="186.67" font-size="22" fill="#64748b">2</text>
    <text x="240" y="186.67" font-size="22" fill="#667eea">8</text>
    <text x="266.67" y="186.67" font-size="22" fill="#64748b">7</text>
    <text x="293.33" y="186.67" font-size="22" fill="#667eea">6</text>
    <text x="320" y="186.67" font-size="22" fill="#64748b">5</text>
    <text x="346.67" y="186.67" font-size="22" fill="#667eea">3</text>
    
    <!-- 第四行 -->
    <text x="133.33" y="213.33" font-size="22" fill="#64748b">8</text>
    <text x="160" y="213.33" font-size="22" fill="#667eea">2</text>
    <text x="186.67" y="213.33" font-size="22" fill="#64748b">5</text>
    <text x="213.33" y="213.33" font-size="22" fill="#667eea">1</text>
    <text x="240" y="213.33" font-size="22" fill="#64748b">4</text>
    <text x="266.67" y="213.33" font-size="22" fill="#667eea">9</text>
    <text x="293.33" y="213.33" font-size="22" fill="#64748b">3</text>
    <text x="320" y="213.33" font-size="22" fill="#667eea">7</text>
    <text x="346.67" y="213.33" font-size="22" fill="#64748b">6</text>
    
    <!-- 第五行 -->
    <text x="133.33" y="240" font-size="22" fill="#667eea">7</text>
    <text x="160" y="240" font-size="22" fill="#64748b">1</text>
    <text x="186.67" y="240" font-size="22" fill="#667eea">3</text>
    <text x="213.33" y="240" font-size="22" fill="#64748b">8</text>
    <text x="240" y="240" font-size="22" fill="#667eea">6</text>
    <text x="266.67" y="240" font-size="22" fill="#64748b">5</text>
    <text x="293.33" y="240" font-size="22" fill="#667eea">2</text>
    <text x="320" y="240" font-size="22" fill="#64748b">9</text>
    <text x="346.67" y="240" font-size="22" fill="#667eea">1</text>
    
    <!-- 第六行 -->
    <text x="133.33" y="266.67" font-size="22" fill="#64748b">4</text>
    <text x="160" y="266.67" font-size="22" fill="#667eea">6</text>
    <text x="186.67" y="266.67" font-size="22" fill="#64748b">9</text>
    <text x="213.33" y="266.67" font-size="22" fill="#667eea">7</text>
    <text x="240" y="266.67" font-size="22" fill="#64748b">2</text>
    <text x="266.67" y="266.67" font-size="22" fill="#667eea">1</text>
    <text x="293.33" y="266.67" font-size="22" fill="#64748b">8</text>
    <text x="320" y="266.67" font-size="22" fill="#667eea">3</text>
    <text x="346.67" y="266.67" font-size="22" fill="#64748b">5</text>
    
    <!-- 第七行 -->
    <text x="133.33" y="293.33" font-size="22" fill="#667eea">2</text>
    <text x="160" y="293.33" font-size="22" fill="#64748b">5</text>
    <text x="186.67" y="293.33" font-size="22" fill="#667eea">8</text>
    <text x="213.33" y="293.33" font-size="22" fill="#64748b">3</text>
    <text x="240" y="293.33" font-size="22" fill="#667eea">9</text>
    <text x="266.67" y="293.33" font-size="22" fill="#64748b">6</text>
    <text x="293.33" y="293.33" font-size="22" fill="#667eea">1</text>
    <text x="320" y="293.33" font-size="22" fill="#64748b">4</text>
    <text x="346.67" y="293.33" font-size="22" fill="#667eea">7</text>
    
    <!-- 第八行 -->
    <text x="133.33" y="320" font-size="22" fill="#64748b">9</text>
    <text x="160" y="320" font-size="22" fill="#667eea">7</text>
    <text x="186.67" y="320" font-size="22" fill="#64748b">1</text>
    <text x="213.33" y="320" font-size="22" fill="#667eea">4</text>
    <text x="240" y="320" font-size="22" fill="#64748b">5</text>
    <text x="266.67" y="320" font-size="22" fill="#667eea">2</text>
    <text x="293.33" y="320" font-size="22" fill="#64748b">3</text>
    <text x="320" y="320" font-size="22" fill="#667eea">8</text>
    <text x="346.67" y="320" font-size="22" fill="#64748b">6</text>
    
    <!-- 第九行 -->
    <text x="133.33" y="346.67" font-size="22" fill="#667eea">3</text>
    <text x="160" y="346.67" font-size="22" fill="#64748b">4</text>
    <text x="186.67" y="346.67" font-size="22" fill="#667eea">6</text>
    <text x="213.33" y="346.67" font-size="22" fill="#64748b">9</text>
    <text x="240" y="346.67" font-size="22" fill="#667eea">7</text>
    <text x="266.67" y="346.67" font-size="22" fill="#64748b">8</text>
    <text x="293.33" y="346.67" font-size="22" fill="#667eea">5</text>
    <text x="320" y="346.67" font-size="22" fill="#64748b">1</text>
    <text x="346.67" y="346.67" font-size="22" fill="#667eea">2</text>
  </g>
  
  <!-- 裝飾性光點 -->
  <circle cx="80" cy="80" r="4" fill="rgba(255,255,255,0.8)"/>
  <circle cx="432" cy="80" r="3" fill="rgba(255,255,255,0.6)"/>
  <circle cx="80" cy="432" r="3" fill="rgba(255,255,255,0.6)"/>
  <circle cx="432" cy="432" r="4" fill="rgba(255,255,255,0.8)"/>
  
  <!-- 中心高光 -->
  <circle cx="256" cy="256" r="60" fill="none" stroke="rgba(255,255,255,0.1)" stroke-width="1"/>
</svg> 