<svg width="512" height="512" viewBox="0 0 512 512" fill="none" xmlns="http://www.w3.org/2000/svg">
  <!-- 背景圓形 -->
  <circle cx="256" cy="256" r="240" fill="#4F46E5"/>
  
  <!-- 數獨網格背景 -->
  <rect x="140" y="140" width="232" height="232" rx="12" fill="#FFFFFF"/>
  
  <!-- 3x3 宮格分隔線 -->
  <line x1="190" y1="140" x2="190" y2="372" stroke="#9CA3AF" stroke-width="4"/>
  <line x1="240" y1="140" x2="240" y2="372" stroke="#9CA3AF" stroke-width="4"/>
  <line x1="290" y1="140" x2="290" y2="372" stroke="#9CA3AF" stroke-width="4"/>
  <line x1="140" y1="190" x2="372" y2="190" stroke="#9CA3AF" stroke-width="4"/>
  <line x1="140" y1="240" x2="372" y2="240" stroke="#9CA3AF" stroke-width="4"/>
  <line x1="140" y1="290" x2="372" y2="290" stroke="#9CA3AF" stroke-width="4"/>
  
  <!-- 細線網格 -->
  <g stroke="#D1D5DB" stroke-width="2">
    <!-- 垂直線 -->
    <line x1="165" y1="140" x2="165" y2="372"/>
    <line x1="215" y1="140" x2="215" y2="372"/>
    <line x1="265" y1="140" x2="265" y2="372"/>
    <line x1="315" y1="140" x2="315" y2="372"/>
    <line x1="365" y1="140" x2="365" y2="372"/>
    
    <!-- 水平線 -->
    <line x1="140" y1="165" x2="372" y2="165"/>
    <line x1="140" y1="215" x2="372" y2="215"/>
    <line x1="140" y1="265" x2="372" y2="265"/>
    <line x1="140" y1="315" x2="372" y2="315"/>
    <line x1="140" y1="365" x2="372" y2="365"/>
  </g>
  
  <!-- 數字 1-9 在網格中 (簡化版本) -->
  <g font-family="Arial, sans-serif" font-weight="bold" text-anchor="middle" dominant-baseline="middle">
    <!-- 第一行 -->
    <text x="152.5" y="152.5" font-size="20" fill="#4F46E5">5</text>
    <text x="177.5" y="152.5" font-size="20" fill="#6B7280">3</text>
    <text x="202.5" y="152.5" font-size="20" fill="#4F46E5">7</text>
    <text x="227.5" y="152.5" font-size="20" fill="#6B7280">6</text>
    <text x="252.5" y="152.5" font-size="20" fill="#4F46E5">1</text>
    <text x="277.5" y="152.5" font-size="20" fill="#6B7280">9</text>
    <text x="302.5" y="152.5" font-size="20" fill="#4F46E5">8</text>
    <text x="327.5" y="152.5" font-size="20" fill="#6B7280">2</text>
    <text x="352.5" y="152.5" font-size="20" fill="#4F46E5">4</text>
    
    <!-- 第二行 -->
    <text x="152.5" y="177.5" font-size="20" fill="#6B7280">6</text>
    <text x="177.5" y="177.5" font-size="20" fill="#4F46E5">8</text>
    <text x="202.5" y="177.5" font-size="20" fill="#6B7280">2</text>
    <text x="227.5" y="177.5" font-size="20" fill="#4F46E5">5</text>
    <text x="252.5" y="177.5" font-size="20" fill="#6B7280">7</text>
    <text x="277.5" y="177.5" font-size="20" fill="#4F46E5">3</text>
    <text x="302.5" y="177.5" font-size="20" fill="#6B7280">4</text>
    <text x="327.5" y="177.5" font-size="20" fill="#4F46E5">1</text>
    <text x="352.5" y="177.5" font-size="20" fill="#6B7280">9</text>
    
    <!-- 第三行 -->
    <text x="152.5" y="202.5" font-size="20" fill="#4F46E5">1</text>
    <text x="177.5" y="202.5" font-size="20" fill="#6B7280">9</text>
    <text x="202.5" y="202.5" font-size="20" fill="#4F46E5">4</text>
    <text x="227.5" y="202.5" font-size="20" fill="#6B7280">2</text>
    <text x="252.5" y="202.5" font-size="20" fill="#4F46E5">8</text>
    <text x="277.5" y="202.5" font-size="20" fill="#6B7280">7</text>
    <text x="302.5" y="202.5" font-size="20" fill="#4F46E5">6</text>
    <text x="327.5" y="202.5" font-size="20" fill="#6B7280">5</text>
    <text x="352.5" y="202.5" font-size="20" fill="#4F46E5">3</text>
    
    <!-- 第四行 -->
    <text x="152.5" y="227.5" font-size="20" fill="#6B7280">8</text>
    <text x="177.5" y="227.5" font-size="20" fill="#4F46E5">2</text>
    <text x="202.5" y="227.5" font-size="20" fill="#6B7280">5</text>
    <text x="227.5" y="227.5" font-size="20" fill="#4F46E5">1</text>
    <text x="252.5" y="227.5" font-size="20" fill="#6B7280">4</text>
    <text x="277.5" y="227.5" font-size="20" fill="#4F46E5">9</text>
    <text x="302.5" y="227.5" font-size="20" fill="#6B7280">3</text>
    <text x="327.5" y="227.5" font-size="20" fill="#4F46E5">7</text>
    <text x="352.5" y="227.5" font-size="20" fill="#6B7280">6</text>
    
    <!-- 第五行 -->
    <text x="152.5" y="252.5" font-size="20" fill="#4F46E5">7</text>
    <text x="177.5" y="252.5" font-size="20" fill="#6B7280">1</text>
    <text x="202.5" y="252.5" font-size="20" fill="#4F46E5">3</text>
    <text x="227.5" y="252.5" font-size="20" fill="#6B7280">8</text>
    <text x="252.5" y="252.5" font-size="20" fill="#4F46E5">6</text>
    <text x="277.5" y="252.5" font-size="20" fill="#6B7280">5</text>
    <text x="302.5" y="252.5" font-size="20" fill="#4F46E5">2</text>
    <text x="327.5" y="252.5" font-size="20" fill="#6B7280">9</text>
    <text x="352.5" y="252.5" font-size="20" fill="#4F46E5">1</text>
    
    <!-- 第六行 -->
    <text x="152.5" y="277.5" font-size="20" fill="#6B7280">4</text>
    <text x="177.5" y="277.5" font-size="20" fill="#4F46E5">6</text>
    <text x="202.5" y="277.5" font-size="20" fill="#6B7280">9</text>
    <text x="227.5" y="277.5" font-size="20" fill="#4F46E5">7</text>
    <text x="252.5" y="277.5" font-size="20" fill="#6B7280">2</text>
    <text x="277.5" y="277.5" font-size="20" fill="#4F46E5">1</text>
    <text x="302.5" y="277.5" font-size="20" fill="#6B7280">8</text>
    <text x="327.5" y="277.5" font-size="20" fill="#4F46E5">3</text>
    <text x="352.5" y="277.5" font-size="20" fill="#6B7280">5</text>
    
    <!-- 第七行 -->
    <text x="152.5" y="302.5" font-size="20" fill="#4F46E5">2</text>
    <text x="177.5" y="302.5" font-size="20" fill="#6B7280">5</text>
    <text x="202.5" y="302.5" font-size="20" fill="#4F46E5">8</text>
    <text x="227.5" y="302.5" font-size="20" fill="#6B7280">3</text>
    <text x="252.5" y="302.5" font-size="20" fill="#4F46E5">9</text>
    <text x="277.5" y="302.5" font-size="20" fill="#6B7280">6</text>
    <text x="302.5" y="302.5" font-size="20" fill="#4F46E5">1</text>
    <text x="327.5" y="302.5" font-size="20" fill="#6B7280">4</text>
    <text x="352.5" y="302.5" font-size="20" fill="#4F46E5">7</text>
    
    <!-- 第八行 -->
    <text x="152.5" y="327.5" font-size="20" fill="#6B7280">9</text>
    <text x="177.5" y="327.5" font-size="20" fill="#4F46E5">7</text>
    <text x="202.5" y="327.5" font-size="20" fill="#6B7280">1</text>
    <text x="227.5" y="327.5" font-size="20" fill="#4F46E5">4</text>
    <text x="252.5" y="327.5" font-size="20" fill="#6B7280">5</text>
    <text x="277.5" y="327.5" font-size="20" fill="#4F46E5">2</text>
    <text x="302.5" y="327.5" font-size="20" fill="#6B7280">3</text>
    <text x="327.5" y="327.5" font-size="20" fill="#4F46E5">8</text>
    <text x="352.5" y="327.5" font-size="20" fill="#6B7280">6</text>
    
    <!-- 第九行 -->
    <text x="152.5" y="352.5" font-size="20" fill="#4F46E5">3</text>
    <text x="177.5" y="352.5" font-size="20" fill="#6B7280">4</text>
    <text x="202.5" y="352.5" font-size="20" fill="#4F46E5">6</text>
    <text x="227.5" y="352.5" font-size="20" fill="#6B7280">9</text>
    <text x="252.5" y="352.5" font-size="20" fill="#4F46E5">7</text>
    <text x="277.5" y="352.5" font-size="20" fill="#6B7280">8</text>
    <text x="302.5" y="352.5" font-size="20" fill="#4F46E5">5</text>
    <text x="327.5" y="352.5" font-size="20" fill="#6B7280">1</text>
    <text x="352.5" y="352.5" font-size="20" fill="#4F46E5">2</text>
  </g>
</svg> 