<svg width="512" height="512" viewBox="0 0 512 512" fill="none" xmlns="http://www.w3.org/2000/svg">
  <!-- 背景圓形 -->
  <circle cx="256" cy="256" r="240" fill="#4F46E5" stroke="#3730A3" stroke-width="8"/>
  
  <!-- 內圈裝飾 -->
  <circle cx="256" cy="256" r="200" fill="none" stroke="#A5B4FC" stroke-width="2" opacity="0.3"/>
  
  <!-- 數獨網格背景 -->
  <rect x="120" y="120" width="272" height="272" rx="16" fill="#FFFFFF" stroke="#E5E7EB" stroke-width="2"/>
  
  <!-- 3x3 宮格分隔線 -->
  <line x1="200" y1="120" x2="200" y2="392" stroke="#9CA3AF" stroke-width="3"/>
  <line x1="280" y1="120" x2="280" y2="392" stroke="#9CA3AF" stroke-width="3"/>
  <line x1="120" y1="200" x2="392" y2="200" stroke="#9CA3AF" stroke-width="3"/>
  <line x1="120" y1="280" x2="392" y2="280" stroke="#9CA3AF" stroke-width="3"/>
  
  <!-- 細線網格 -->
  <g stroke="#D1D5DB" stroke-width="1">
    <!-- 垂直線 -->
    <line x1="146.67" y1="120" x2="146.67" y2="392"/>
    <line x1="173.33" y1="120" x2="173.33" y2="392"/>
    <line x1="226.67" y1="120" x2="226.67" y2="392"/>
    <line x1="253.33" y1="120" x2="253.33" y2="392"/>
    <line x1="306.67" y1="120" x2="306.67" y2="392"/>
    <line x1="333.33" y1="120" x2="333.33" y2="392"/>
    <line x1="386.67" y1="120" x2="386.67" y2="392"/>
    <line x1="413.33" y1="120" x2="413.33" y2="392"/>
    
    <!-- 水平線 -->
    <line x1="120" y1="146.67" x2="392" y2="146.67"/>
    <line x1="120" y1="173.33" x2="392" y2="173.33"/>
    <line x1="120" y1="226.67" x2="392" y2="226.67"/>
    <line x1="120" y1="253.33" x2="392" y2="253.33"/>
    <line x1="120" y1="306.67" x2="392" y2="306.67"/>
    <line x1="120" y1="333.33" x2="392" y2="333.33"/>
    <line x1="120" y1="386.67" x2="392" y2="386.67"/>
    <line x1="120" y1="413.33" x2="392" y2="413.33"/>
  </g>
  
  <!-- 數字 1-9 在網格中 -->
  <g font-family="Arial, sans-serif" font-weight="bold" text-anchor="middle" dominant-baseline="middle">
    <!-- 第一行 -->
    <text x="133.33" y="133.33" font-size="24" fill="#4F46E5">5</text>
    <text x="160" y="133.33" font-size="24" fill="#6B7280">3</text>
    <text x="186.67" y="133.33" font-size="24" fill="#4F46E5">7</text>
    <text x="213.33" y="133.33" font-size="24" fill="#6B7280">6</text>
    <text x="240" y="133.33" font-size="24" fill="#4F46E5">1</text>
    <text x="266.67" y="133.33" font-size="24" fill="#6B7280">9</text>
    <text x="293.33" y="133.33" font-size="24" fill="#4F46E5">8</text>
    <text x="320" y="133.33" font-size="24" fill="#6B7280">2</text>
    <text x="346.67" y="133.33" font-size="24" fill="#4F46E5">4</text>
    
    <!-- 第二行 -->
    <text x="133.33" y="160" font-size="24" fill="#6B7280">6</text>
    <text x="160" y="160" font-size="24" fill="#4F46E5">8</text>
    <text x="186.67" y="160" font-size="24" fill="#6B7280">2</text>
    <text x="213.33" y="160" font-size="24" fill="#4F46E5">5</text>
    <text x="240" y="160" font-size="24" fill="#6B7280">7</text>
    <text x="266.67" y="160" font-size="24" fill="#4F46E5">3</text>
    <text x="293.33" y="160" font-size="24" fill="#6B7280">4</text>
    <text x="320" y="160" font-size="24" fill="#4F46E5">1</text>
    <text x="346.67" y="160" font-size="24" fill="#6B7280">9</text>
    
    <!-- 第三行 -->
    <text x="133.33" y="186.67" font-size="24" fill="#4F46E5">1</text>
    <text x="160" y="186.67" font-size="24" fill="#6B7280">9</text>
    <text x="186.67" y="186.67" font-size="24" fill="#4F46E5">4</text>
    <text x="213.33" y="186.67" font-size="24" fill="#6B7280">2</text>
    <text x="240" y="186.67" font-size="24" fill="#4F46E5">8</text>
    <text x="266.67" y="186.67" font-size="24" fill="#6B7280">7</text>
    <text x="293.33" y="186.67" font-size="24" fill="#4F46E5">6</text>
    <text x="320" y="186.67" font-size="24" fill="#6B7280">5</text>
    <text x="346.67" y="186.67" font-size="24" fill="#4F46E5">3</text>
    
    <!-- 第四行 -->
    <text x="133.33" y="213.33" font-size="24" fill="#6B7280">8</text>
    <text x="160" y="213.33" font-size="24" fill="#4F46E5">2</text>
    <text x="186.67" y="213.33" font-size="24" fill="#6B7280">5</text>
    <text x="213.33" y="213.33" font-size="24" fill="#4F46E5">1</text>
    <text x="240" y="213.33" font-size="24" fill="#6B7280">4</text>
    <text x="266.67" y="213.33" font-size="24" fill="#4F46E5">9</text>
    <text x="293.33" y="213.33" font-size="24" fill="#6B7280">3</text>
    <text x="320" y="213.33" font-size="24" fill="#4F46E5">7</text>
    <text x="346.67" y="213.33" font-size="24" fill="#6B7280">6</text>
    
    <!-- 第五行 -->
    <text x="133.33" y="240" font-size="24" fill="#4F46E5">7</text>
    <text x="160" y="240" font-size="24" fill="#6B7280">1</text>
    <text x="186.67" y="240" font-size="24" fill="#4F46E5">3</text>
    <text x="213.33" y="240" font-size="24" fill="#6B7280">8</text>
    <text x="240" y="240" font-size="24" fill="#4F46E5">6</text>
    <text x="266.67" y="240" font-size="24" fill="#6B7280">5</text>
    <text x="293.33" y="240" font-size="24" fill="#4F46E5">2</text>
    <text x="320" y="240" font-size="24" fill="#6B7280">9</text>
    <text x="346.67" y="240" font-size="24" fill="#4F46E5">1</text>
    
    <!-- 第六行 -->
    <text x="133.33" y="266.67" font-size="24" fill="#6B7280">4</text>
    <text x="160" y="266.67" font-size="24" fill="#4F46E5">6</text>
    <text x="186.67" y="266.67" font-size="24" fill="#6B7280">9</text>
    <text x="213.33" y="266.67" font-size="24" fill="#4F46E5">7</text>
    <text x="240" y="266.67" font-size="24" fill="#6B7280">2</text>
    <text x="266.67" y="266.67" font-size="24" fill="#4F46E5">1</text>
    <text x="293.33" y="266.67" font-size="24" fill="#6B7280">8</text>
    <text x="320" y="266.67" font-size="24" fill="#4F46E5">3</text>
    <text x="346.67" y="266.67" font-size="24" fill="#6B7280">5</text>
    
    <!-- 第七行 -->
    <text x="133.33" y="293.33" font-size="24" fill="#4F46E5">2</text>
    <text x="160" y="293.33" font-size="24" fill="#6B7280">5</text>
    <text x="186.67" y="293.33" font-size="24" fill="#4F46E5">8</text>
    <text x="213.33" y="293.33" font-size="24" fill="#6B7280">3</text>
    <text x="240" y="293.33" font-size="24" fill="#4F46E5">9</text>
    <text x="266.67" y="293.33" font-size="24" fill="#6B7280">6</text>
    <text x="293.33" y="293.33" font-size="24" fill="#4F46E5">1</text>
    <text x="320" y="293.33" font-size="24" fill="#6B7280">4</text>
    <text x="346.67" y="293.33" font-size="24" fill="#4F46E5">7</text>
    
    <!-- 第八行 -->
    <text x="133.33" y="320" font-size="24" fill="#6B7280">9</text>
    <text x="160" y="320" font-size="24" fill="#4F46E5">7</text>
    <text x="186.67" y="320" font-size="24" fill="#6B7280">1</text>
    <text x="213.33" y="320" font-size="24" fill="#4F46E5">4</text>
    <text x="240" y="320" font-size="24" fill="#6B7280">5</text>
    <text x="266.67" y="320" font-size="24" fill="#4F46E5">2</text>
    <text x="293.33" y="320" font-size="24" fill="#6B7280">3</text>
    <text x="320" y="320" font-size="24" fill="#4F46E5">8</text>
    <text x="346.67" y="320" font-size="24" fill="#6B7280">6</text>
    
    <!-- 第九行 -->
    <text x="133.33" y="346.67" font-size="24" fill="#4F46E5">3</text>
    <text x="160" y="346.67" font-size="24" fill="#6B7280">4</text>
    <text x="186.67" y="346.67" font-size="24" fill="#4F46E5">6</text>
    <text x="213.33" y="346.67" font-size="24" fill="#6B7280">9</text>
    <text x="240" y="346.67" font-size="24" fill="#4F46E5">7</text>
    <text x="266.67" y="346.67" font-size="24" fill="#6B7280">8</text>
    <text x="293.33" y="346.67" font-size="24" fill="#4F46E5">5</text>
    <text x="320" y="346.67" font-size="24" fill="#6B7280">1</text>
    <text x="346.67" y="346.67" font-size="24" fill="#4F46E5">2</text>
  </g>
  
  <!-- 裝飾性元素 -->
  <circle cx="100" cy="100" r="8" fill="#A5B4FC" opacity="0.6"/>
  <circle cx="412" cy="100" r="6" fill="#A5B4FC" opacity="0.4"/>
  <circle cx="100" cy="412" r="6" fill="#A5B4FC" opacity="0.4"/>
  <circle cx="412" cy="412" r="8" fill="#A5B4FC" opacity="0.6"/>
</svg> 